<?xml version="1.0" standalone="no"?>
<!DOCTYPE svg PUBLIC "-//W3C//DTD SVG 20010904//EN"
 "http://www.w3.org/TR/2001/REC-SVG-20010904/DTD/svg10.dtd">
<svg version="1.0" xmlns="http://www.w3.org/2000/svg"
 width="600.000000pt" height="600.000000pt" viewBox="0 0 600.000000 600.000000"
 preserveAspectRatio="xMidYMid meet">
<g transform="translate(0.000000,600.000000) scale(0.100000,-0.100000)"
fill="#000000" stroke="none">
<path d="M2760 5069 c-402 -51 -792 -220 -1086 -470 -740 -628 -963 -1637
-549 -2484 117 -239 247 -418 445 -608 296 -286 647 -471 1050 -553 124 -25
155 -28 370 -28 258 -1 350 10 547 65 642 180 1183 677 1418 1304 148 396 165
861 47 1270 -166 571 -555 1037 -1083 1300 -221 109 -442 175 -689 205 -98 12
-375 11 -470 -1z m380 -20 c-12 -9 -11 -10 7 -6 23 5 228 -16 228 -23 0 -1 16
-3 35 -6 19 -2 44 -5 55 -6 11 -2 26 -9 33 -15 7 -7 24 -14 38 -14 27 -2 32
-3 54 -12 8 -4 41 -13 72 -21 64 -16 89 -28 108 -50 7 -9 17 -16 23 -16 6 0 2
6 -9 14 -10 8 11 3 48 -11 44 -17 64 -30 55 -35 -8 -5 -3 -8 13 -8 14 0 50
-15 82 -34 31 -19 60 -31 64 -28 4 4 3 1 -1 -7 -6 -11 -4 -13 8 -8 8 3 18 0
21 -8 2 -7 20 -21 38 -30 51 -24 70 -42 66 -61 -2 -14 4 -18 28 -19 32 -1 64
-19 64 -37 0 -5 -6 -6 -12 -2 -9 5 -9 2 1 -9 7 -9 19 -17 25 -17 6 0 4 5 -4
10 -10 7 -11 10 -2 10 7 0 15 -7 18 -15 4 -8 12 -15 20 -15 8 0 19 -9 26 -19
6 -10 17 -17 23 -15 6 3 22 -8 35 -23 18 -20 20 -23 5 -13 -20 14 -20 14 -1
-7 10 -13 23 -20 29 -16 5 3 7 1 3 -5 -3 -5 -1 -12 5 -14 7 -2 13 -15 14 -28
2 -23 35 -39 35 -17 0 7 8 0 18 -16 10 -15 22 -24 26 -20 4 5 6 3 4 -2 -4 -13
27 -57 34 -49 4 3 9 -3 12 -14 4 -11 20 -35 36 -54 17 -18 28 -38 25 -45 -2
-7 1 -15 7 -19 7 -5 8 -2 4 7 -4 8 -1 5 8 -5 8 -10 13 -23 10 -27 -3 -5 2 -6
10 -3 10 4 16 1 16 -9 0 -8 7 -20 15 -27 9 -7 14 -19 11 -26 -3 -7 0 -16 6
-20 7 -5 8 -2 3 7 -4 8 4 1 18 -16 19 -22 22 -33 15 -43 -8 -9 -8 -16 1 -25
10 -9 11 -8 5 7 -16 43 14 4 45 -58 18 -36 37 -69 42 -72 5 -3 9 -10 9 -15 0
-6 -4 -7 -10 -4 -14 9 -12 -1 3 -17 15 -16 57 -92 57 -104 0 -4 -7 1 -16 12
-15 18 -15 18 -5 -3 6 -12 15 -23 20 -25 6 -1 12 -14 15 -28 2 -14 14 -52 26
-85 12 -33 22 -70 22 -82 0 -13 4 -23 10 -23 5 0 8 -10 7 -22 -1 -13 3 -36 10
-51 6 -16 8 -33 5 -38 -3 -6 -1 -22 5 -37 34 -87 43 -457 16 -637 -8 -55 -16
-109 -18 -120 -8 -58 -31 -146 -38 -151 -4 -2 -6 -11 -2 -19 3 -8 1 -15 -4
-15 -5 0 -9 -8 -10 -17 -2 -30 -44 -133 -53 -133 -5 0 -6 -8 -3 -18 6 -14 4
-15 -8 -5 -12 9 -14 4 -15 -32 -1 -48 -28 -100 -47 -89 -9 5 -9 3 1 -7 17 -18
15 -32 -4 -25 -9 3 -12 2 -8 -5 8 -14 -36 -100 -48 -93 -5 3 -7 2 -6 -3 4 -13
-23 -83 -32 -83 -11 0 -56 -72 -52 -84 2 -5 -4 -6 -12 -3 -9 4 -15 3 -15 -1 3
-19 -3 -46 -8 -34 -3 8 -12 1 -22 -19 -18 -34 -41 -50 -41 -29 0 6 5 8 12 4 7
-5 8 -3 3 6 -6 10 -11 10 -20 -3 -7 -9 -16 -13 -20 -9 -5 4 -5 1 -1 -6 4 -7
12 -10 17 -7 28 18 -12 -43 -63 -96 -9 -10 -13 -21 -10 -25 4 -5 -1 -2 -11 6
-10 7 -17 9 -16 4 4 -24 -2 -36 -17 -30 -14 5 -15 4 -4 -9 11 -13 10 -14 -4
-9 -10 4 -18 0 -22 -10 -3 -9 -11 -13 -18 -9 -6 4 -5 -1 3 -11 12 -15 12 -17
0 -14 -8 2 -13 -2 -12 -9 1 -6 -4 -14 -13 -17 -8 -3 -12 -1 -9 4 3 5 -1 7 -9
4 -8 -3 -13 -11 -10 -17 2 -7 -9 -21 -25 -32 -16 -10 -27 -24 -23 -30 3 -5 -2
-4 -12 4 -9 8 -16 10 -14 5 2 -5 -7 -20 -19 -33 l-22 -24 4 23 c3 13 10 27 17
31 8 5 6 8 -8 7 -15 -2 -20 -8 -18 -25 3 -32 -34 -77 -51 -63 -10 8 -15 8 -21
-1 -4 -8 -3 -9 4 -5 7 4 12 4 12 -1 -1 -13 -98 -75 -109 -69 -5 4 -13 1 -17
-5 -4 -8 -3 -9 4 -5 7 4 12 2 12 -3 0 -6 -6 -11 -14 -11 -7 0 -19 -7 -26 -15
-7 -9 -19 -14 -27 -11 -8 3 -11 1 -8 -4 3 -5 -6 -12 -20 -16 -13 -3 -22 -11
-19 -16 4 -6 -3 -5 -15 1 -17 9 -21 9 -19 -1 2 -7 -3 -12 -9 -11 -7 2 -13 -2
-13 -7 0 -6 -7 -10 -15 -10 -8 0 -15 -4 -15 -10 0 -5 -7 -7 -15 -4 -8 4 -15 1
-15 -4 0 -6 -10 -14 -22 -17 -43 -13 -78 -30 -78 -39 0 -4 -11 -6 -25 -4 -15
3 -22 1 -18 -5 4 -6 0 -8 -10 -4 -10 3 -17 3 -17 -1 0 -5 -26 -16 -57 -26 -32
-10 -69 -23 -83 -29 -14 -5 -29 -11 -35 -12 -5 0 -26 -4 -45 -9 -19 -4 -46 -9
-60 -11 -14 -2 -70 -11 -125 -20 -143 -23 -319 -30 -309 -13 6 10 5 10 -7 1
-11 -8 -47 -8 -154 3 -173 18 -194 22 -174 35 12 7 11 9 -3 9 -9 0 -18 -5 -20
-11 -3 -8 -19 -7 -58 4 -29 9 -57 14 -61 11 -4 -2 -11 1 -15 7 -5 8 -3 9 6 4
9 -5 11 -4 6 4 -4 6 -11 9 -17 6 -20 -13 -256 75 -241 90 4 4 -2 5 -14 1 -14
-4 -33 2 -56 17 -19 14 -48 29 -64 34 -16 6 -28 16 -26 22 2 9 -3 9 -19 0 -12
-6 -19 -7 -15 -1 3 6 -8 15 -24 21 -17 5 -30 13 -30 16 0 3 5 3 12 -1 7 -4 8
-3 4 4 -4 6 -14 8 -23 5 -12 -5 -15 -2 -10 9 4 11 1 14 -11 11 -10 -2 -35 9
-57 25 -22 15 -48 31 -58 35 -11 4 -15 12 -11 18 4 8 3 9 -4 5 -7 -4 -12 -2
-12 4 0 6 -4 9 -9 6 -10 -7 -104 78 -95 86 3 4 -4 4 -17 1 -18 -5 -21 -3 -16
10 3 9 1 19 -5 23 -7 4 -8 3 -4 -4 10 -17 -3 -15 -20 3 -9 8 -12 19 -9 25 3 5
1 10 -5 10 -6 0 -8 5 -4 12 4 7 3 8 -5 4 -6 -4 -9 -12 -6 -17 3 -5 -1 -6 -9
-3 -9 3 -14 10 -11 14 3 4 -3 11 -12 14 -14 6 -14 8 2 20 18 13 17 14 -6 11
-22 -2 -26 1 -23 21 1 13 -2 22 -7 18 -5 -3 -7 -9 -4 -14 3 -5 1 -12 -5 -15
-6 -4 -9 -2 -8 2 2 5 -14 26 -35 46 -22 20 -36 40 -33 46 4 5 1 13 -5 17 -8 4
-9 3 -5 -4 4 -8 2 -10 -8 -6 -8 3 -13 14 -11 24 2 10 -2 17 -10 16 -8 0 -14 2
-15 6 0 4 -18 27 -40 50 -22 24 -45 54 -52 68 -7 14 -27 45 -45 69 -26 34 -31
47 -22 58 9 11 9 12 -3 8 -9 -4 -18 1 -22 10 -4 11 -2 14 7 10 6 -4 0 3 -16
15 -15 12 -25 26 -22 30 3 5 1 11 -4 15 -17 10 -81 156 -74 167 4 7 1 8 -7 3
-10 -6 -12 -4 -7 9 4 9 3 14 -2 11 -10 -5 -27 32 -23 49 2 4 -1 13 -6 20 -13
16 -42 106 -42 130 0 12 -7 34 -15 50 -11 21 -12 31 -5 36 8 5 6 12 -5 24 -9
9 -14 16 -10 16 3 0 3 6 -2 13 -4 6 -9 21 -10 32 -1 11 -10 70 -20 130 -17
107 -22 334 -10 430 3 22 8 72 12 111 4 39 12 83 20 97 8 16 9 27 3 29 -5 2 0
20 12 41 12 21 20 41 16 44 -3 4 -6 1 -6 -5 0 -7 -4 -12 -10 -12 -6 0 -5 10 2
25 6 13 16 21 22 18 6 -4 5 0 -2 9 -11 14 -11 21 1 45 8 15 20 49 27 75 7 26
16 45 21 42 5 -3 6 1 3 9 -3 8 2 21 10 29 11 12 12 18 3 28 -10 10 -8 12 6 7
9 -4 17 -2 17 3 0 6 -4 10 -9 10 -10 0 35 96 49 105 5 3 6 13 3 22 -4 11 -3
14 5 9 8 -4 10 -2 6 7 -3 8 0 18 5 22 6 3 8 12 4 18 -4 8 -1 8 9 -1 13 -10 16
-10 15 0 -1 37 4 59 13 53 9 -5 15 15 11 38 -2 11 14 8 28 -5 11 -11 11 -9 1
11 -11 22 -11 23 6 17 10 -4 15 -4 11 0 -4 4 -1 14 6 23 11 14 10 15 -7 1 -11
-9 -5 4 13 30 18 25 39 44 46 42 7 -1 16 2 20 8 3 6 0 7 -9 4 -20 -8 -20 7 0
32 8 10 12 12 8 4 -5 -11 -4 -12 4 -5 6 6 13 20 15 32 2 12 15 34 30 49 15 15
27 32 27 38 0 6 5 4 10 -4 8 -13 10 -12 10 4 0 12 5 16 16 12 8 -3 12 -2 9 4
-6 10 15 50 28 50 4 0 5 -5 1 -12 -4 -7 -3 -8 4 -4 6 4 9 13 6 21 -5 12 1 14
25 11 27 -3 29 -1 20 15 -5 11 -12 19 -15 19 -3 0 -3 -4 1 -9 3 -5 1 -12 -4
-15 -5 -4 -8 2 -7 11 2 10 7 18 12 18 15 0 73 63 66 71 -4 5 1 2 11 -6 17 -12
18 -12 15 5 -3 22 18 27 42 11 8 -6 6 0 -5 13 -11 14 -15 21 -9 18 7 -4 19 4
28 18 19 29 40 32 56 8 10 -16 11 -16 6 -1 -3 9 -2 19 2 21 4 2 1 2 -5 1 -7
-2 -13 1 -13 6 0 6 6 10 14 10 8 0 17 7 20 16 3 9 13 14 21 10 8 -3 17 0 21 6
5 7 2 8 -6 3 -9 -6 -11 -4 -6 4 6 9 13 8 28 -6 15 -13 19 -14 16 -3 -2 8 -7
18 -11 21 -8 6 93 89 108 89 5 0 17 8 28 18 11 9 17 11 13 5 -4 -7 -4 -13 -1
-13 12 0 54 37 49 43 -3 2 17 11 45 18 27 7 48 16 45 20 -2 4 18 15 46 24 27
9 53 21 56 27 4 6 10 5 15 -3 7 -11 9 -11 9 2 0 14 96 53 155 63 11 1 46 11
79 20 32 10 65 15 73 12 8 -3 11 -1 8 4 -3 6 0 11 7 12 7 0 24 2 38 4 14 2 72
10 130 19 58 9 113 14 123 11 9 -2 15 0 12 4 -3 5 61 9 142 9 108 1 144 -2
133 -10z m1070 -388 c0 -4 -6 -8 -14 -8 -8 0 -12 6 -9 14 5 13 23 9 23 -6z
m264 -241 c-6 -6 -10 -3 -10 10 0 13 4 16 10 10 7 -7 7 -13 0 -20z m436 -2194
c0 -3 -4 -8 -10 -11 -5 -3 -10 -1 -10 4 0 6 5 11 10 11 6 0 10 -2 10 -4z"/>
<path d="M2978 4843 c12 -2 32 -2 45 0 12 2 2 4 -23 4 -25 0 -35 -2 -22 -4z"/>
<path d="M2908 4825 c-2 -1 -44 -5 -95 -9 -50 -3 -110 -13 -133 -21 -22 -8
-38 -11 -35 -6 2 5 -6 8 -19 7 -13 0 -22 -4 -19 -8 2 -5 -2 -8 -11 -8 -8 0
-23 -3 -33 -7 -16 -6 -16 -5 -4 10 12 15 12 17 -3 11 -9 -3 -16 -13 -16 -21 0
-7 -6 -13 -12 -12 -7 1 -22 -1 -33 -5 -11 -4 -31 -12 -45 -16 -14 -4 -34 -12
-45 -16 -11 -4 -26 -6 -32 -5 -7 1 -13 -2 -13 -7 0 -6 -7 -13 -16 -16 -8 -3
-12 -2 -9 4 3 6 1 10 -4 10 -6 0 -11 -4 -11 -10 0 -5 -7 -10 -15 -10 -8 0 -15
-4 -15 -10 0 -5 -8 -7 -17 -3 -10 3 -15 2 -10 -2 6 -7 -63 -41 -98 -48 -6 -2
-25 -12 -41 -24 -17 -13 -34 -20 -38 -18 -3 3 -4 2 -1 -1 2 -4 -7 -15 -21 -26
-19 -15 -28 -17 -38 -8 -10 7 -16 8 -21 0 -6 -10 1 -14 18 -11 21 4 -6 -16
-55 -40 -84 -42 -105 -48 -115 -38 -6 6 -10 4 -10 -5 0 -8 5 -14 11 -13 6 1
11 -5 11 -13 0 -8 -6 -14 -12 -13 -7 2 -12 -3 -10 -10 1 -7 -9 -12 -25 -12
-14 1 -25 -2 -22 -6 2 -4 1 -9 -3 -12 -5 -2 -2 -2 6 0 11 3 11 1 1 -12 -7 -8
-16 -12 -21 -9 -5 3 -9 1 -9 -4 0 -19 -68 -84 -80 -77 -8 5 -11 4 -6 -3 8 -14
-24 -53 -37 -45 -6 3 -7 1 -4 -4 4 -6 0 -16 -8 -23 -13 -11 -14 -10 -9 6 5 15
4 16 -4 4 -6 -8 -8 -18 -6 -22 3 -4 -7 -20 -22 -35 -14 -16 -23 -22 -19 -14 6
10 4 12 -4 7 -7 -5 -10 -14 -7 -22 3 -9 0 -11 -12 -7 -15 6 -16 5 -2 -12 8
-10 11 -16 5 -13 -12 7 -37 -17 -28 -26 4 -3 1 -6 -5 -6 -7 0 -12 -7 -12 -16
0 -8 -4 -12 -10 -9 -5 3 -7 0 -4 -8 3 -9 -4 -21 -15 -29 -12 -8 -18 -18 -14
-21 3 -4 1 -7 -5 -7 -7 0 -12 -6 -12 -14 0 -7 -7 -19 -15 -26 -8 -7 -12 -16
-9 -21 3 -5 0 -9 -6 -9 -6 0 -9 -4 -6 -9 3 -5 -1 -14 -9 -21 -8 -7 -15 -16
-15 -21 0 -5 -15 -35 -32 -66 -18 -32 -33 -64 -35 -72 -1 -8 -8 -18 -15 -22
-7 -5 -9 -9 -4 -9 5 0 3 -7 -4 -15 -7 -8 -10 -22 -6 -30 3 -9 2 -13 -4 -10 -5
3 -9 -3 -8 -12 0 -10 -7 -38 -16 -62 -9 -24 -16 -52 -16 -62 0 -11 -4 -19 -9
-19 -8 0 -18 -38 -26 -95 -2 -11 -6 -33 -9 -50 -32 -154 -37 -430 -12 -570 9
-50 17 -114 18 -142 2 -28 7 -50 12 -50 4 1 16 -25 26 -59 10 -33 23 -70 29
-82 6 -11 8 -28 4 -38 -4 -12 -3 -15 5 -10 8 5 11 -2 8 -24 -2 -17 1 -33 7
-37 6 -4 7 -1 2 7 -5 9 -4 11 4 6 6 -4 9 -11 6 -16 -8 -13 6 -41 18 -33 6 4 8
-2 5 -15 -4 -12 -3 -20 2 -17 4 3 11 -7 14 -20 4 -14 11 -23 16 -20 6 3 7 -1
4 -9 -3 -9 -1 -16 6 -16 6 0 8 -4 5 -10 -3 -5 3 -20 15 -32 12 -13 19 -31 16
-40 -2 -10 -1 -16 4 -13 4 2 20 -14 35 -36 15 -23 21 -38 13 -34 -7 3 -6 1 2
-7 9 -7 28 -29 43 -49 21 -28 24 -38 14 -49 -9 -10 -9 -11 0 -6 14 8 57 -17
47 -27 -4 -3 8 -18 25 -33 19 -15 30 -33 27 -41 -3 -8 -2 -12 3 -9 4 3 17 -2
27 -10 10 -9 13 -12 5 -8 -9 5 -12 3 -7 -5 4 -6 11 -9 16 -6 4 3 14 -3 21 -12
12 -14 12 -16 -1 -9 -8 5 -1 -3 15 -17 17 -14 27 -29 23 -33 -5 -4 -8 -2 -8 4
0 7 -5 12 -11 12 -8 0 -8 -4 1 -14 6 -8 18 -12 25 -10 16 6 89 -62 81 -74 -3
-5 1 -9 9 -9 8 0 12 5 9 11 -3 6 1 3 9 -6 8 -10 17 -15 21 -11 4 4 4 0 0 -10
-3 -9 -11 -14 -17 -10 -6 3 -7 1 -3 -5 5 -9 13 -9 27 -2 18 10 23 6 20 -14 -1
-5 4 -6 12 -3 7 3 28 -10 47 -29 18 -19 37 -34 41 -34 19 0 99 -65 95 -77 -3
-7 0 -15 6 -19 6 -4 8 -3 5 3 -4 6 0 14 9 17 10 4 13 2 8 -6 -5 -8 -2 -9 9 -5
10 4 17 1 17 -5 0 -6 3 -8 7 -5 3 4 11 3 17 -2 17 -14 129 -72 146 -76 8 -2
29 -9 45 -16 17 -7 35 -13 40 -14 6 -1 28 -10 50 -20 22 -10 55 -19 73 -21 19
-2 40 -8 48 -15 7 -6 21 -9 29 -5 8 3 15 1 15 -5 0 -6 7 -9 15 -6 8 4 17 2 20
-4 4 -5 10 -7 14 -5 4 3 25 1 47 -4 111 -26 380 -32 519 -11 80 12 139 19 163
20 7 1 11 5 7 10 -3 5 7 8 22 7 16 -2 31 1 34 7 4 5 18 10 33 10 14 0 26 3 26
8 0 5 8 9 19 9 10 0 31 6 46 14 15 8 34 12 41 9 8 -3 14 0 14 7 0 8 9 11 25 7
14 -2 23 -2 20 1 -3 3 18 17 47 30 29 13 62 31 72 40 11 10 16 12 13 5 -5 -7
0 -9 14 -6 16 4 17 8 7 14 -10 7 -10 9 2 10 8 1 18 1 23 0 4 0 7 4 7 10 0 5 4
7 10 4 5 -3 25 5 43 19 19 14 37 24 40 21 4 -3 5 -2 2 2 -3 3 35 32 85 64 49
32 113 82 141 111 29 29 49 47 45 41 -4 -7 -3 -13 2 -13 5 0 12 10 15 21 4 14
11 20 21 16 21 -8 39 16 23 33 -10 10 -9 12 6 7 12 -5 17 -1 17 11 0 9 13 23
30 31 25 11 34 11 48 0 14 -11 15 -11 5 1 -7 8 -13 23 -13 33 0 20 34 70 42
61 3 -2 11 4 19 13 13 16 12 17 -3 4 -31 -24 -19 4 15 35 17 16 41 46 51 66
11 20 23 35 26 33 4 -2 7 1 7 8 0 23 36 68 50 63 10 -4 11 -1 3 14 -13 24 17
60 32 38 8 -10 9 -10 5 2 -2 8 -10 14 -17 12 -11 -3 -11 0 -1 12 7 9 18 13 24
9 6 -3 7 -1 3 6 -4 6 6 36 24 67 17 30 28 59 25 64 -4 6 -1 10 4 10 6 0 11 7
11 16 0 8 4 13 8 10 4 -2 7 8 6 22 0 15 3 34 7 42 14 28 22 55 26 84 2 16 7
34 12 40 10 12 32 86 38 126 36 252 35 466 -4 680 -4 19 -7 45 -7 57 -1 11 -4
19 -8 16 -5 -2 -8 7 -8 21 0 14 -4 28 -10 31 -5 3 -10 15 -10 25 0 11 -11 54
-25 96 -14 42 -22 80 -19 85 3 5 -2 12 -10 15 -9 3 -16 11 -16 18 0 6 -14 37
-30 69 -17 31 -28 62 -25 67 4 6 -1 13 -10 16 -9 4 -14 13 -11 21 4 9 2 11 -6
7 -8 -5 -9 -2 -5 9 3 9 1 19 -5 23 -7 5 -8 2 -4 -7 11 -20 -32 32 -45 55 -7
12 -7 16 -1 12 6 -3 14 -1 18 5 4 7 3 9 -4 5 -13 -8 -44 22 -36 35 3 5 0 8 -8
7 -8 -2 -12 4 -10 15 2 9 -1 17 -5 16 -20 -3 -27 2 -13 11 13 8 12 10 -2 10
-10 0 -18 5 -18 11 0 5 -4 7 -10 4 -5 -3 -10 0 -10 8 0 7 -15 28 -32 47 -18
18 -26 30 -18 26 8 -4 3 2 -13 14 -15 12 -24 27 -21 32 4 6 3 8 -3 5 -11 -7
-54 46 -57 71 -2 9 -9 18 -17 20 -11 3 -11 1 1 -7 9 -6 10 -11 3 -11 -6 0 -21
12 -32 26 -12 15 -21 23 -21 19 0 -4 -7 -2 -15 5 -12 10 -13 16 -3 29 12 14
11 15 -6 1 -16 -13 -20 -12 -32 5 -8 10 -14 23 -14 28 0 4 -4 6 -9 2 -6 -3
-13 1 -18 8 -4 8 -21 22 -38 32 -16 10 -38 28 -48 39 -10 12 -16 15 -12 7 5
-9 -1 -8 -19 4 -23 15 -39 34 -18 21 5 -3 9 0 9 7 0 7 -11 13 -25 14 -32 1
-73 23 -66 35 3 5 2 7 -3 6 -4 -1 -42 15 -84 35 -42 20 -82 37 -88 37 -7 0 -9
4 -6 10 3 6 -1 7 -9 4 -9 -4 -16 -1 -16 6 0 6 -6 10 -12 7 -7 -2 -19 3 -26 12
-8 9 -11 10 -7 4 4 -9 1 -11 -9 -7 -9 3 -14 10 -11 14 3 5 -6 7 -20 5 -14 -1
-25 1 -25 4 0 8 -108 41 -132 41 -18 0 -33 16 -21 23 5 2 1 2 -7 0 -29 -8 -63
-5 -57 5 3 4 -11 8 -31 9 -21 1 -62 6 -92 12 -48 9 -344 23 -352 16z m392 -50
c781 -140 1380 -771 1486 -1565 35 -267 0 -554 -102 -826 -88 -238 -212 -429
-403 -627 -634 -653 -1585 -739 -2324 -210 -44 32 -130 105 -190 163 -295 282
-466 602 -544 1015 -26 140 -24 425 5 579 147 778 763 1370 1542 1482 124 17
402 12 530 -11z m-1398 -322 c-6 -2 -10 -9 -6 -14 3 -5 1 -9 -5 -9 -5 0 -12 4
-15 9 -6 9 10 19 29 19 6 0 4 -2 -3 -5z m2388 -2747 c0 -3 -4 -8 -10 -11 -5
-3 -10 -1 -10 4 0 6 5 11 10 11 6 0 10 -2 10 -4z"/>
<path d="M3847 4509 c7 -7 15 -10 18 -7 3 3 -2 9 -12 12 -14 6 -15 5 -6 -5z"/>
<path d="M1620 4106 c0 -2 7 -7 16 -10 8 -3 12 -2 9 4 -6 10 -25 14 -25 6z"/>
<path d="M4349 4093 c-13 -16 -12 -17 4 -4 16 13 21 21 13 21 -2 0 -10 -8 -17
-17z"/>
<path d="M1760 3798 c-43 -12 -88 -52 -106 -95 -11 -26 -14 -162 -14 -745 0
-677 1 -715 19 -748 10 -19 34 -44 52 -55 32 -19 55 -20 409 -23 493 -4 587 9
724 102 117 81 174 186 183 341 12 208 -62 356 -218 434 l-56 28 34 19 c52 28
119 108 144 172 29 75 32 221 6 304 -45 146 -167 233 -372 264 -107 16 -749
18 -805 2z m80 -18 c0 -7 123 -10 358 -8 196 1 366 0 377 -1 31 -4 85 -20 144
-43 47 -19 52 -23 36 -34 -14 -11 -12 -12 19 -10 43 4 65 -16 46 -40 -8 -8 -9
-14 -3 -12 6 2 11 -1 12 -7 1 -5 -3 -10 -8 -10 -5 0 -12 -3 -16 -7 -4 -3 0 -5
9 -4 8 1 18 5 22 8 21 22 70 -39 80 -101 2 -8 6 -26 10 -40 4 -14 7 -29 6 -32
-1 -4 -2 -37 -3 -73 -1 -41 -7 -70 -15 -77 -8 -6 -14 -16 -14 -22 0 -6 7 -2
15 9 8 10 15 16 15 12 0 -15 -44 -98 -53 -98 -4 0 -6 -4 -3 -8 9 -16 -24 -52
-41 -45 -10 4 -14 2 -10 -4 9 -14 -19 -37 -33 -28 -5 3 -10 1 -10 -5 0 -6 -13
-25 -29 -43 -29 -30 -29 -31 -10 -45 11 -7 16 -18 13 -24 -4 -6 2 -6 15 1 17
9 24 8 42 -10 11 -11 23 -18 26 -16 7 7 49 -36 45 -47 -2 -5 4 -6 13 -2 9 3
13 2 10 -4 -3 -6 -2 -10 4 -10 5 0 23 -22 39 -48 40 -65 51 -117 52 -237 0
-69 -2 -91 -16 -148 -10 -41 -50 -118 -58 -110 -3 3 -6 -3 -6 -15 0 -12 -6
-21 -12 -20 -7 2 -12 -3 -10 -10 1 -8 -2 -11 -7 -8 -5 4 -12 2 -16 -4 -3 -5
-12 -10 -18 -10 -8 0 -8 3 1 9 11 7 11 9 -1 14 -12 4 -14 -2 -10 -31 3 -26 1
-33 -6 -23 -5 8 -17 16 -26 17 -13 2 -14 0 -4 -12 6 -8 10 -15 8 -17 -38 -22
-51 -26 -66 -21 -13 4 -14 3 -5 -3 22 -16 -48 -38 -178 -57 -54 -8 -804 -8
-826 0 -27 10 -64 45 -58 55 3 5 1 9 -4 9 -14 0 -20 43 -10 69 4 12 4 20 0 17
-4 -2 -7 288 -7 644 0 356 4 646 8 643 5 -3 4 4 -2 15 -12 23 -5 50 18 70 9 8
10 11 4 7 -22 -11 -14 14 14 44 25 26 28 27 39 13 11 -15 12 -15 11 3 -2 15 4
20 21 19 12 0 22 3 22 8 0 4 9 8 20 8 11 0 20 -5 20 -10z m1020 -145 c7 -8 8
-15 2 -15 -5 0 -15 7 -22 15 -7 8 -8 15 -2 15 5 0 15 -7 22 -15z"/>
<path d="M2078 3542 c-52 -2 -90 -8 -96 -15 -6 -7 -12 -92 -14 -199 -3 -168
-1 -188 15 -206 17 -19 31 -20 210 -20 171 0 215 3 306 24 13 2 41 22 62 43
21 22 41 36 45 32 4 -3 4 -1 0 6 -3 6 -1 15 5 18 5 4 8 14 5 22 -3 8 -2 12 3
9 5 -3 12 1 15 10 3 8 2 12 -4 9 -6 -3 -10 1 -10 10 0 9 4 14 8 11 12 -7 7 67
-7 92 -14 27 -14 35 1 26 7 -4 8 -3 4 5 -4 6 -12 9 -17 6 -5 -4 -9 1 -9 9 0 9
-5 16 -11 16 -6 0 -9 7 -5 15 5 14 -47 44 -119 67 -31 9 -239 15 -387 10z
m373 -36 c107 -25 149 -76 149 -182 0 -82 -32 -134 -102 -164 -49 -22 -71 -24
-278 -28 l-226 -4 1 196 0 196 200 0 c130 0 220 -5 256 -14z"/>
<path d="M2845 3160 c-3 -5 -1 -10 4 -10 6 0 11 5 11 10 0 6 -2 10 -4 10 -3 0
-8 -4 -11 -10z"/>
<path d="M2730 3059 c0 -5 5 -7 10 -4 6 3 10 8 10 11 0 2 -4 4 -10 4 -5 0 -10
-5 -10 -11z"/>
<path d="M1980 2883 c-12 -15 -14 -53 -12 -210 2 -115 -1 -193 -7 -193 -5 0
-11 -7 -14 -14 -4 -11 -1 -13 10 -9 12 5 15 2 10 -10 -3 -9 -1 -19 5 -23 7 -4
6 -9 -3 -15 -8 -5 111 -8 274 -8 201 1 285 4 280 11 -4 7 2 9 15 6 12 -4 20
-2 17 2 -3 4 10 14 28 21 17 7 36 15 41 17 5 3 5 -1 1 -8 -5 -9 -4 -11 4 -6 9
6 9 11 0 22 -10 12 -10 15 2 12 8 -2 13 3 11 11 -3 12 -1 12 14 0 10 -8 15 -9
11 -2 -4 6 -2 24 4 40 7 15 13 33 13 38 1 6 7 20 13 31 7 12 10 24 7 27 -10
10 -13 68 -4 62 14 -9 12 7 -5 28 -7 11 -11 26 -8 35 4 10 2 13 -5 8 -7 -4
-12 -1 -12 7 0 8 -9 26 -20 39 -10 14 -16 28 -12 32 3 4 -2 4 -12 0 -14 -5
-17 -3 -14 7 3 8 11 13 17 11 7 -1 10 2 6 8 -5 8 -11 8 -20 0 -15 -12 -36 -10
-50 6 -22 25 -110 34 -337 34 -210 0 -235 -2 -248 -17z m385 -16 c167 -3 206
-14 258 -77 56 -65 62 -197 13 -270 -53 -81 -136 -100 -444 -100 l-202 0 2
228 3 227 110 -2 c61 -2 178 -4 260 -6z"/>
<path d="M2700 2731 c0 -6 4 -13 10 -16 6 -3 7 1 4 9 -7 18 -14 21 -14 7z"/>
<path d="M1933 2600 c0 -25 2 -35 4 -22 2 12 2 32 0 45 -2 12 -4 2 -4 -23z"/>
<path d="M1932 2500 c0 -14 2 -19 5 -12 2 6 2 18 0 25 -3 6 -5 1 -5 -13z"/>
<path d="M2813 2305 c0 -8 4 -12 9 -9 5 3 6 10 3 15 -9 13 -12 11 -12 -6z"/>
<path d="M3127 3796 c-69 -25 -97 -66 -97 -143 0 -65 26 -112 75 -137 36 -19
60 -21 250 -24 l210 -2 5 -633 c6 -712 2 -677 83 -718 51 -27 138 -30 182 -7
38 20 71 55 84 91 7 19 11 234 11 650 l0 622 213 0 c194 0 215 2 246 20 55 32
74 66 75 132 1 67 -20 110 -68 139 -29 18 -63 19 -631 21 -485 2 -607 0 -638
-11z m1197 -17 c-4 -8 1 -9 16 -4 15 5 20 4 16 -4 -4 -6 -2 -9 7 -6 15 6 67
-31 67 -48 0 -6 -7 -2 -16 9 -14 18 -15 18 -4 -3 6 -13 15 -23 20 -23 10 0 6
-79 -6 -118 -3 -13 -24 -32 -44 -42 -33 -17 -62 -19 -243 -20 -180 -1 -207 -4
-221 -19 -13 -15 -15 -89 -14 -633 2 -525 0 -619 -13 -634 -12 -16 -12 -17 1
-9 8 5 2 -6 -14 -25 -38 -47 -47 -51 -120 -57 -48 -4 -66 -1 -78 11 -9 8 -18
12 -22 9 -3 -4 -6 0 -6 7 0 7 -3 11 -6 7 -8 -8 -33 16 -27 26 3 4 0 14 -7 22
-8 10 -12 186 -13 643 -1 388 -5 628 -11 625 -5 -4 -7 1 -3 9 5 14 -20 16
-201 17 -215 2 -238 4 -285 28 -23 12 -26 17 -16 29 10 12 9 13 -4 8 -23 -8
-28 90 -7 131 19 37 40 61 40 45 0 -7 6 -6 15 4 13 13 77 14 470 13 377 -2
720 4 733 11 2 1 0 -3 -4 -9z"/>
<path d="M3080 3566 c0 -2 7 -7 16 -10 8 -3 12 -2 9 4 -6 10 -25 14 -25 6z"/>
<path d="M3610 2236 c0 -2 7 -7 16 -10 8 -3 12 -2 9 4 -6 10 -25 14 -25 6z"/>
<path d="M3852 2221 c7 -9 13 -18 15 -20 1 -2 1 5 0 16 0 11 -7 20 -14 20 -10
0 -10 -4 -1 -16z"/>
<path d="M2926 3671 c-3 -5 2 -15 12 -22 15 -12 16 -12 5 2 -7 9 -10 19 -6 22
3 4 4 7 0 7 -3 0 -8 -4 -11 -9z"/>
<path d="M4324 1909 c-3 -6 -2 -15 3 -20 5 -5 9 -1 9 11 0 23 -2 24 -12 9z"/>
<path d="M1640 1907 c0 -2 6 -10 14 -16 11 -9 16 -9 22 1 4 7 4 10 -1 6 -4 -4
-14 -3 -22 3 -7 6 -13 9 -13 6z"/>
<path d="M4253 1825 c0 -8 4 -12 9 -9 5 3 6 10 3 15 -9 13 -12 11 -12 -6z"/>
<path d="M4185 1750 c-4 -6 -11 -7 -17 -4 -7 4 -8 2 -4 -5 6 -9 11 -9 22 0 14
11 18 19 10 19 -3 0 -8 -5 -11 -10z"/>
<path d="M1929 4733 c-12 -16 -12 -17 1 -7 8 6 22 14 30 17 13 5 12 6 -1 6 -9
1 -23 -7 -30 -16z"/>
<path d="M4058 4743 c6 -2 9 -10 6 -15 -4 -7 -2 -8 5 -4 13 9 5 26 -12 25 -9
0 -8 -2 1 -6z"/>
<path d="M4045 4539 c-4 -6 -5 -12 -2 -15 2 -3 7 2 10 11 7 17 1 20 -8 4z"/>
<path d="M1637 4519 c7 -7 15 -10 18 -7 3 3 -2 9 -12 12 -14 6 -15 5 -6 -5z"/>
<path d="M1969 4513 c-13 -17 -13 -17 6 -3 11 8 22 16 24 17 2 2 0 3 -6 3 -6
0 -17 -8 -24 -17z"/>
<path d="M4330 4510 c-8 -5 -10 -10 -5 -11 39 -6 54 -5 49 2 -2 4 -12 5 -21 2
-11 -4 -14 -3 -9 5 9 14 6 15 -14 2z"/>
<path d="M1636 4492 c-2 -4 4 -8 14 -8 10 0 16 4 14 8 -3 4 -9 8 -14 8 -5 0
-11 -4 -14 -8z"/>
<path d="M4143 4465 c0 -8 4 -12 9 -9 5 3 6 10 3 15 -9 13 -12 11 -12 -6z"/>
<path d="M4410 4440 c-12 -7 -10 -9 7 -7 12 0 19 5 17 9 -6 10 -6 10 -24 -2z"/>
<path d="M1572 4424 c10 -10 20 -16 22 -13 3 3 -5 11 -17 18 -21 13 -21 12 -5
-5z"/>
<path d="M4566 4256 c5 -13 29 -16 36 -5 2 2 1 3 -1 2 -2 -1 -12 2 -22 8 -14
7 -17 6 -13 -5z"/>
<path d="M4455 4149 c-4 -6 -5 -12 -2 -15 2 -3 7 2 10 11 7 17 1 20 -8 4z"/>
<path d="M4520 4061 c0 -6 4 -13 10 -16 6 -3 7 1 4 9 -7 18 -14 21 -14 7z"/>
<path d="M4842 2990 c0 -19 2 -27 5 -17 2 9 2 25 0 35 -3 9 -5 1 -5 -18z"/>
<path d="M1011 2594 c0 -11 3 -14 6 -6 3 7 2 16 -1 19 -3 4 -6 -2 -5 -13z"/>
<path d="M4972 2490 c0 -14 2 -19 5 -12 2 6 2 18 0 25 -3 6 -5 1 -5 -13z"/>
<path d="M1090 2311 c0 -6 4 -13 10 -16 6 -3 7 1 4 9 -7 18 -14 21 -14 7z"/>
<path d="M1260 1945 c0 -5 5 -17 10 -25 5 -8 10 -10 10 -5 0 6 -5 17 -10 25
-5 8 -10 11 -10 5z"/>
<path d="M4440 1856 c0 -2 7 -7 16 -10 8 -3 12 -2 9 4 -6 10 -25 14 -25 6z"/>
<path d="M1327 1829 c7 -7 15 -10 18 -7 3 3 -2 9 -12 12 -14 6 -15 5 -6 -5z"/>
<path d="M1760 1661 c0 -10 29 -36 34 -30 1 2 -6 12 -16 22 -10 9 -18 13 -18
8z"/>
<path d="M4206 1633 c-6 -14 -5 -15 5 -6 7 7 10 15 7 18 -3 3 -9 -2 -12 -12z"/>
<path d="M4500 1640 c-9 -6 -10 -10 -3 -10 6 0 15 5 18 10 8 12 4 12 -15 0z"/>
<path d="M1584 1592 c3 -5 0 -13 -6 -15 -9 -4 -10 -6 -1 -6 17 -1 25 16 12 25
-7 4 -9 3 -5 -4z"/>
<path d="M4413 1585 c0 -8 4 -12 9 -9 5 3 6 10 3 15 -9 13 -12 11 -12 -6z"/>
<path d="M4129 1553 l-24 -28 28 24 c15 14 27 26 27 28 0 8 -8 1 -31 -24z"/>
<path d="M1910 1540 c0 -5 5 -10 11 -10 5 0 7 5 4 10 -3 6 -8 10 -11 10 -2 0
-4 -4 -4 -10z"/>
<path d="M4331 1494 c0 -11 3 -14 6 -6 3 7 2 16 -1 19 -3 4 -6 -2 -5 -13z"/>
<path d="M1655 1490 c-3 -5 -1 -10 4 -10 6 0 11 5 11 10 0 6 -2 10 -4 10 -3 0
-8 -4 -11 -10z"/>
<path d="M2014 1456 c11 -9 24 -16 30 -16 12 0 7 5 -24 19 -24 11 -24 11 -6
-3z"/>
<path d="M1736 1428 c3 -5 10 -6 15 -3 13 9 11 12 -6 12 -8 0 -12 -4 -9 -9z"/>
<path d="M1745 1401 c-3 -5 -2 -12 3 -15 5 -3 9 1 9 9 0 17 -3 19 -12 6z"/>
<path d="M2250 1316 c0 -2 7 -7 16 -10 8 -3 12 -2 9 4 -6 10 -25 14 -25 6z"/>
<path d="M3714 1304 c-18 -14 -18 -14 6 -3 31 14 36 19 24 19 -6 0 -19 -7 -30
-16z"/>
<path d="M2130 1186 c0 -2 7 -7 16 -10 8 -3 12 -2 9 4 -6 10 -25 14 -25 6z"/>
<path d="M3880 1180 c-9 -6 -10 -10 -3 -10 6 0 15 5 18 10 8 12 4 12 -15 0z"/>
<path d="M3480 1026 c0 -7 40 -14 44 -7 3 4 -6 8 -20 9 -13 1 -24 0 -24 -2z"/>
<path d="M1449 4453 c-13 -16 -12 -17 4 -4 9 7 17 15 17 17 0 8 -8 3 -21 -13z"/>
<path d="M1525 1481 c-3 -5 -2 -12 3 -15 5 -3 9 1 9 9 0 17 -3 19 -12 6z"/>
</g>
</svg>
